<svg width="26" height="26" viewBox="0 0 26 26" fill="none" xmlns="http://www.w3.org/2000/svg"><path d="M23.2906 24.4918C23.2906 24.9226 22.9414 25.2718 22.5106 25.2718H3.48898C3.0582 25.2718 2.70898 24.9226 2.70898 24.4918V1.51438C2.70898 1.08359 3.0582 0.734375 3.48898 0.734375H22.5106C22.9414 0.734375 23.2906 1.08359 23.2906 1.51438V24.4918ZM4.07088 23.3372C4.07088 23.768 4.42009 24.1172 4.85088 24.1172H21.1041C21.5349 24.1172 21.8841 23.768 21.8841 23.3372V2.76883C21.8841 2.33805 21.5349 1.98883 21.1041 1.98883H4.85088C4.42009 1.98883 4.07088 2.33805 4.07088 2.76883V23.3372Z" fill="currentColor"></path><path d="M22.5137 4.28125H2.70898V5.45744H22.5137V4.28125Z" fill="currentColor"></path><path d="M22.5137 20.5469H2.70898V21.7231H22.5137V20.5469Z" fill="currentColor"></path><line x1="2.72461" y1="12.5919" x2="23.0016" y2="12.5919" stroke="currentColor" stroke-width="0.91" stroke-dasharray="0.91 0.91"></line><path d="M13.5883 4.67969H12.4121V20.9449H13.5883V4.67969Z" fill="currentColor"></path></svg>